# xmcd
#
# Track frame offsets: 
#        150
#        11036
#        23683
#        34844
#        46594
#        55653
#        67540
#        79863
#        89669
#        101331
#        114224
#        123186
#
# Disc length: 1802 seconds
#
# Revision: 0
# Processed by: cddbd v1.5.2PL0 Copyright (c) Steve Scherf et al.
# Submitted via: ExactAudioCopy v0.95b3
#
DISCID=8007080c
DTITLE=The Monkees  - The Monkees (DESS US Mono)  FLAC
DYEAR=1900
DGENRE=
TTITLE0=(Theme From) The Monkees
TTITLE1=Saturday's Child
TTITLE2=I Wanna Be Free
TTITLE3=Tomorrow's Gonna Be Another Day
TTITLE4=Papa Gene's Blues
TTITLE5=Take A Giant Step
TTITLE6=Last Train To Clarksville
TTITLE7=This Just Doesn't Seem To Be My Day
TTITLE8=Let's Dance On
TTITLE9=I'll Be True To You
TTITLE10=Sweet Young Thing
TTITLE11=Gonna Buy Me A Dog
EXTD=
EXTT0=
EXTT1=
EXTT2=
EXTT3=
EXTT4=
EXTT5=
EXTT6=
EXTT7=
EXTT8=
EXTT9=
EXTT10=
EXTT11=
PLAYORDER=
